<svg width="34" height="34" viewBox="0 0 34 34" fill="none" xmlns="http://www.w3.org/2000/svg">
<path fill-rule="evenodd" clip-rule="evenodd" d="M5.66683 2.83301H28.3335C29.8983 2.83301 31.1668 4.10152 31.1668 5.6663V28.3327C31.1668 29.8974 29.8983 31.166 28.3335 31.166H5.66683C4.10202 31.166 2.8335 29.8974 2.8335 28.3327V5.6663C2.8335 4.10152 4.10202 2.83301 5.66683 2.83301ZM5.66682 5.6663V28.3327H28.3335V5.6663H5.66682ZM15.772 17.0057H18.4168V25.4994H21.2502V17.0057H24.0586V14.1724H21.2502V12.7495C21.2502 11.9671 21.8844 11.3329 22.6668 11.3329H24.0835V8.4996H22.6668C20.3196 8.4996 18.4168 10.4024 18.4168 12.7495V14.1724H15.772V17.0057Z" fill="#CCCCCC"/>
</svg>
