<svg width="34" height="34" viewBox="0 0 34 34" fill="none" xmlns="http://www.w3.org/2000/svg">
<path fill-rule="evenodd" clip-rule="evenodd" d="M22.6668 2.83301H11.3335C6.63908 2.83301 2.8335 6.63859 2.8335 11.333V22.6663C2.8335 27.3608 6.63908 31.1663 11.3335 31.1663H22.6668C27.3612 31.1663 31.1668 27.3608 31.1668 22.6663V11.333C31.1668 6.63859 27.3612 2.83301 22.6668 2.83301ZM5.66683 11.333C5.66683 8.20339 8.20388 5.66634 11.3335 5.66634H22.6668C25.7964 5.66634 28.3335 8.20339 28.3335 11.333V22.6663C28.3335 25.796 25.7964 28.333 22.6668 28.333H11.3335C8.20388 28.333 5.66683 25.796 5.66683 22.6663V11.333ZM17.0002 24.083C13.0881 24.083 9.91683 20.9117 9.91683 16.9997C9.91683 13.0877 13.0881 9.91634 17.0002 9.91634C20.9122 9.91634 24.0835 13.0877 24.0835 16.9997C24.0835 20.9117 20.9122 24.083 17.0002 24.083ZM17.0002 21.2497C19.3474 21.2497 21.2502 19.3469 21.2502 16.9997C21.2502 14.6525 19.3474 12.7497 17.0002 12.7497C14.653 12.7497 12.7502 14.6525 12.7502 16.9997C12.7502 19.3469 14.653 21.2497 17.0002 21.2497ZM25.5002 9.91634C25.5002 10.6987 24.8659 11.333 24.0835 11.333C23.3011 11.333 22.6668 10.6987 22.6668 9.91634C22.6668 9.13394 23.3011 8.49967 24.0835 8.49967C24.8659 8.49967 25.5002 9.13394 25.5002 9.91634Z" fill="#CCCCCC"/>
</svg>
