<svg width="34" height="34" viewBox="0 0 34 34" fill="none" xmlns="http://www.w3.org/2000/svg">
<path fill-rule="evenodd" clip-rule="evenodd" d="M29.9195 6.38639L31.9237 6.62046L31.0228 8.42601C30.5835 9.3065 30.1437 10.187 29.7035 11.0675C29.6513 11.254 29.5595 11.4175 29.4238 11.6303C29.3671 11.7193 29.1735 12.0022 29.1644 12.0158C29.1133 12.0925 29.0754 12.1529 29.0482 12.2014V15.5852C29.0482 24.2438 20.6686 29.746 12.7552 29.746C11.1359 29.746 9.90559 29.6684 8.49683 29.361C6.17846 28.8551 4.45313 27.8494 3.66362 26.0918L2.85079 24.2823L4.82616 24.1006C6.61317 23.9363 8.16256 23.5959 9.35241 23.14C6.08583 22.6146 4.25526 21.18 4.25526 18.4856V17.0689H5.67193C5.98319 17.0689 6.26385 17.0437 6.51477 16.9973C4.06316 15.5315 2.83523 13.18 2.83523 9.9185C2.83496 9.77948 2.83496 9.77948 2.83412 9.63085C2.82491 7.98688 2.91322 7.10846 3.36326 5.98735C3.65168 5.26884 4.06859 4.60368 4.62969 3.9942L5.69872 2.83301L6.73808 4.02084C10.1632 7.93529 13.5491 10.3101 17.0061 10.5974C17.0208 6.98532 19.7507 4.25183 23.3813 4.25183C25.0739 4.25183 26.6091 4.89428 27.8157 6.0527C28.476 6.1884 29.1773 6.29972 29.9195 6.38639ZM26.7874 8.72917L26.3531 8.63083L26.0532 8.3017C25.328 7.50592 24.4177 7.08514 23.3813 7.08514C21.3088 7.08514 19.8393 8.56185 19.8393 10.6268C19.8393 10.9643 19.8306 11.1763 19.7886 11.455C19.6208 12.5671 18.9971 13.4601 17.7143 13.4601C13.4671 13.4601 9.63542 11.1848 5.89901 7.29871C5.70639 7.88426 5.66109 8.48615 5.66742 9.61494C5.66827 9.76591 5.66827 9.76591 5.66856 9.91847C5.66856 12.8198 6.84399 14.4068 9.62708 15.2914L10.6146 15.6053V16.6415C10.6146 17.8981 9.42414 19.0809 7.6823 19.6108C8.48078 20.2166 10.1138 20.5435 12.7557 20.5435H14.1723V21.9601C14.1723 23.9898 11.8401 25.5791 8.31706 26.4089C9.46602 26.761 10.9958 26.9127 12.7552 26.9127C19.2923 26.9127 26.2149 22.3671 26.2149 15.5851V12.0435C26.2149 11.6273 26.3355 11.266 26.536 10.8904C26.6143 10.7435 26.7006 10.6035 26.8071 10.4438C26.8271 10.4138 26.9015 10.3049 26.9606 10.2178L27.0728 9.99322C27.2548 9.62936 27.4366 9.26551 27.6184 8.90165C27.3359 8.84814 27.0589 8.79065 26.7874 8.72917Z" fill="#CCCCCC"/>
</svg>
