<svg width="35" height="35" viewBox="0 0 35 35" fill="none" xmlns="http://www.w3.org/2000/svg">
<path d="M29.6216 21.2675C28.8795 20.4982 27.9844 20.0869 27.0358 20.0869C26.0947 20.0869 25.192 20.4906 24.4193 21.2599L22.0017 23.6591C21.8028 23.5524 21.6039 23.4534 21.4126 23.3544C21.1372 23.2173 20.8771 23.0878 20.6552 22.9507C18.3906 21.5188 16.3326 19.6528 14.3588 17.2384C13.4024 16.0349 12.7598 15.022 12.2931 13.9937C12.9205 13.4225 13.5019 12.8284 14.068 12.2572C14.2823 12.0439 14.4965 11.823 14.7107 11.6098C16.3173 10.0103 16.3173 7.93862 14.7107 6.33916L12.6221 4.25986C12.3849 4.02375 12.1401 3.78002 11.9106 3.53629C11.4516 3.06407 10.9696 2.57661 10.4723 2.11962C9.73018 1.38844 8.84271 1 7.90934 1C6.97597 1 6.0732 1.38844 5.30815 2.11962C5.3005 2.12724 5.3005 2.12724 5.29285 2.13486L2.69165 4.74731C1.71238 5.72222 1.15389 6.91039 1.03148 8.28898C0.847867 10.513 1.50582 12.5847 2.01075 13.9404C3.25015 17.2688 5.10158 20.3535 7.86344 23.6591C11.2144 27.6425 15.2462 30.7881 19.8519 33.0045C21.6115 33.8347 23.9602 34.8172 26.5844 34.9848C26.745 34.9924 26.9133 35 27.0664 35C28.8336 35 30.3179 34.3678 31.4807 33.1111C31.4884 33.0959 31.5037 33.0883 31.5113 33.073C31.9092 32.5932 32.3682 32.1591 32.8502 31.6944C33.1792 31.3822 33.5158 31.0547 33.8448 30.7119C34.6022 29.9274 35 29.0134 35 28.0766C35 27.1322 34.5945 26.2258 33.8218 25.4642L29.6216 21.2675ZM32.3606 29.2876C32.3529 29.2876 32.3529 29.2953 32.3606 29.2876C32.0622 29.6075 31.7562 29.897 31.4272 30.2168C30.9299 30.6891 30.425 31.1841 29.9506 31.7401C29.1779 32.5627 28.2675 32.9512 27.074 32.9512C26.9593 32.9512 26.8368 32.9512 26.7221 32.9435C24.4499 32.7988 22.3383 31.9153 20.7546 31.1613C16.4244 29.0744 12.6221 26.1116 9.46241 22.3566C6.85356 19.2263 5.10923 16.332 3.954 13.2245C3.24249 11.328 2.98238 9.85036 3.09713 8.45654C3.17364 7.56541 3.51792 6.82661 4.15291 6.19445L6.76176 3.59722C7.13663 3.24686 7.53446 3.05645 7.92464 3.05645C8.40663 3.05645 8.79681 3.34588 9.04162 3.58961C9.04928 3.59722 9.05693 3.60484 9.06458 3.61246C9.53126 4.0466 9.97499 4.49597 10.4417 4.97581C10.6788 5.21953 10.9237 5.46326 11.1685 5.71461L13.2571 7.79391C14.068 8.60126 14.068 9.34767 13.2571 10.155C13.0352 10.3759 12.821 10.5968 12.5991 10.81C11.9565 11.4651 11.3444 12.0744 10.6788 12.6685C10.6635 12.6837 10.6482 12.6913 10.6406 12.7065C9.98264 13.3616 10.1051 14.0013 10.2428 14.4355C10.2504 14.4583 10.2581 14.4812 10.2657 14.504C10.8089 15.8141 11.574 17.0479 12.7368 18.5179L12.7445 18.5255C14.8561 21.1151 17.0824 23.1335 19.5382 24.6797C19.8519 24.8777 20.1732 25.0376 20.4792 25.19C20.7546 25.3271 21.0148 25.4565 21.2366 25.5936C21.2672 25.6089 21.2978 25.6317 21.3284 25.647C21.5886 25.7764 21.8334 25.8374 22.0858 25.8374C22.7208 25.8374 23.1187 25.4413 23.2487 25.3118L25.8652 22.707C26.1253 22.448 26.5385 22.1358 27.0205 22.1358C27.4948 22.1358 27.885 22.4328 28.1221 22.6918C28.1298 22.6994 28.1298 22.6994 28.1374 22.707L32.3529 26.9037C33.1409 27.6806 33.1409 28.4803 32.3606 29.2876Z" fill="#CCCCCC" stroke="#CCCCCC" stroke-width="0.75"/>
</svg>
